<svg xmlns="http://www.w3.org/2000/svg" width="187.088" height="55.49" viewBox="0 0 187.088 55.49">
  <g id="vara" transform="translate(-2.834 -68.633)">
    <path id="Path_821" data-name="Path 821" d="M180.422,122.777h9.5L164.908,68.633l-25.014,54.144h9.5l5.779-12.785h19.512l5.739,12.785Zm-9.143-20.343H158.535l6.373-15.119ZM49.1,70.019H39.6L25.988,104.531,12.374,70.019H2.834l23.154,54.1L49.1,70.019Zm32.771,53.075h9.5L66.358,68.99l-25.014,54.1h9.5l5.778-12.783H76.133l5.74,12.783ZM72.73,102.75H59.986l6.372-15.119Z" fill="#fff" fill-rule="evenodd"/>
    <path id="Path_822" data-name="Path 822" d="M106.174,70.335H98.3v39.46h7.877Zm-7.678,50.9a5.029,5.029,0,0,0,3.68,1.543,5.274,5.274,0,0,0,5.186-5.186,5.025,5.025,0,0,0-1.545-3.68,4.8,4.8,0,0,0-3.641-1.465,5.008,5.008,0,0,0-5.145,5.145A4.807,4.807,0,0,0,98.5,121.234Z" fill="#ff5943" fill-rule="evenodd"/>
    <path id="Path_823" data-name="Path 823" d="M124.062,85.256a7.685,7.685,0,0,1-2.256,5.5,7.527,7.527,0,0,1-5.5,2.256l-7.242.04,16.346,30.079h9.816L121.845,99.545a14.983,14.983,0,0,0,10.449-14.288A14.932,14.932,0,0,0,117.333,70.3h-7.717v7.242H116.3a7.7,7.7,0,0,1,7.758,7.717Z" fill="#fff" fill-rule="evenodd"/>
  </g>
</svg>
